<mxfile host="app.diagrams.net" agent="Mozilla/5.0 (Windows NT 10.0; Win64; x64) AppleWebKit/537.36 (KHTML, like Gecko) Chrome/136.0.0.0 Safari/537.36" version="27.0.2">
  <diagram name="Page-1" id="P72dvpQ-2zeVc5Xd1oKq">
    <mxGraphModel dx="2316" dy="1187" grid="1" gridSize="10" guides="1" tooltips="1" connect="1" arrows="1" fold="1" page="1" pageScale="1" pageWidth="850" pageHeight="1100" math="0" shadow="0">
      <root>
        <mxCell id="0" />
        <mxCell id="1" parent="0" />
        <mxCell id="mU7X4Q-QLZoV4EPe-LPM-1" value="&lt;i&gt;User&lt;/i&gt;" style="swimlane;fontStyle=1;align=center;verticalAlign=top;childLayout=stackLayout;horizontal=1;startSize=26;horizontalStack=0;resizeParent=1;resizeParentMax=0;resizeLast=0;collapsible=1;marginBottom=0;whiteSpace=wrap;html=1;" vertex="1" parent="1">
          <mxGeometry x="1085" y="200" width="330" height="374" as="geometry" />
        </mxCell>
        <mxCell id="mU7X4Q-QLZoV4EPe-LPM-2" value="&lt;pre style=&quot;overflow: auto; padding: 9.144px 13.716px; word-break: break-all; margin-top: 0px !important; margin-bottom: 0px !important;&quot;&gt;&lt;font style=&quot;color: rgb(0, 0, 0);&quot; face=&quot;Helvetica&quot;&gt;&lt;span style=&quot;text-wrap-mode: wrap;&quot;&gt; &lt;br&gt;- username: String&lt;br&gt;- password: String&lt;br&gt;- dateOfBirth: String&lt;br&gt;- gender: Gender&lt;br&gt;- wallet: Wallet&lt;/span&gt;&lt;/font&gt;&lt;/pre&gt;" style="text;strokeColor=none;fillColor=none;align=left;verticalAlign=top;spacingLeft=4;spacingRight=4;overflow=hidden;rotatable=0;points=[[0,0.5],[1,0.5]];portConstraint=eastwest;whiteSpace=wrap;html=1;" vertex="1" parent="mU7X4Q-QLZoV4EPe-LPM-1">
          <mxGeometry y="26" width="330" height="120" as="geometry" />
        </mxCell>
        <mxCell id="mU7X4Q-QLZoV4EPe-LPM-3" value="" style="line;strokeWidth=1;fillColor=none;align=left;verticalAlign=middle;spacingTop=-1;spacingLeft=3;spacingRight=3;rotatable=0;labelPosition=right;points=[];portConstraint=eastwest;strokeColor=inherit;" vertex="1" parent="mU7X4Q-QLZoV4EPe-LPM-1">
          <mxGeometry y="146" width="330" height="8" as="geometry" />
        </mxCell>
        <mxCell id="mU7X4Q-QLZoV4EPe-LPM-4" value="&lt;pre style=&quot;overflow: auto; padding: 9.144px 13.716px; text-wrap-mode: wrap; word-break: break-all; margin-top: 0px !important; margin-bottom: 0px !important;&quot;&gt;&lt;font style=&quot;color: rgb(0, 0, 0);&quot; face=&quot;Helvetica&quot;&gt;+ User()&lt;br&gt;&lt;/font&gt;&lt;/pre&gt;&lt;pre style=&quot;overflow: auto; padding: 9.144px 13.716px; text-wrap-mode: wrap; word-break: break-all; margin-top: 0px !important; margin-bottom: 0px !important;&quot;&gt;&lt;font face=&quot;Helvetica&quot; style=&quot;color: rgb(0, 0, 0);&quot;&gt;+ User(String, String, String, Gender)                           + getUsername(): String&lt;br&gt;+ setUsername(String): void&lt;br&gt;+ getPassword(): String&lt;br&gt;+ setPassword(String): void&lt;br&gt;+ getDateOfBirth(): String&lt;br&gt;+ setDateOfBirth(String): void&lt;br&gt;+ getGender(): Gender&lt;br&gt;+ setGender(Gender): void&lt;br&gt;&lt;br&gt;&lt;/font&gt;&lt;/pre&gt;" style="text;strokeColor=none;fillColor=none;align=left;verticalAlign=top;spacingLeft=4;spacingRight=4;overflow=hidden;rotatable=0;points=[[0,0.5],[1,0.5]];portConstraint=eastwest;whiteSpace=wrap;html=1;" vertex="1" parent="mU7X4Q-QLZoV4EPe-LPM-1">
          <mxGeometry y="154" width="330" height="220" as="geometry" />
        </mxCell>
        <mxCell id="mU7X4Q-QLZoV4EPe-LPM-5" value="&lt;span style=&quot;font-weight: normal;&quot;&gt;&lt;i&gt;Organizer&lt;/i&gt;&lt;/span&gt;" style="swimlane;fontStyle=1;align=center;verticalAlign=top;childLayout=stackLayout;horizontal=1;startSize=26;horizontalStack=0;resizeParent=1;resizeParentMax=0;resizeLast=0;collapsible=1;marginBottom=0;whiteSpace=wrap;html=1;" vertex="1" parent="1">
          <mxGeometry x="735" y="620" width="350" height="422" as="geometry">
            <mxRectangle x="-100" y="530" width="90" height="30" as="alternateBounds" />
          </mxGeometry>
        </mxCell>
        <mxCell id="mU7X4Q-QLZoV4EPe-LPM-6" value="&amp;nbsp; &amp;nbsp; &amp;nbsp;- eventType: Event" style="text;html=1;align=left;verticalAlign=middle;resizable=0;points=[];autosize=1;strokeColor=none;fillColor=none;" vertex="1" parent="mU7X4Q-QLZoV4EPe-LPM-5">
          <mxGeometry y="26" width="350" height="30" as="geometry" />
        </mxCell>
        <mxCell id="mU7X4Q-QLZoV4EPe-LPM-7" value="" style="line;strokeWidth=1;fillColor=none;align=left;verticalAlign=middle;spacingTop=-1;spacingLeft=3;spacingRight=3;rotatable=0;labelPosition=right;points=[];portConstraint=eastwest;strokeColor=inherit;" vertex="1" parent="mU7X4Q-QLZoV4EPe-LPM-5">
          <mxGeometry y="56" width="350" height="34" as="geometry" />
        </mxCell>
        <mxCell id="mU7X4Q-QLZoV4EPe-LPM-8" value="&lt;pre style=&quot;overflow: auto; padding: 9.144px 13.716px; word-break: break-all; margin-top: 0px !important; margin-bottom: 0px !important;&quot;&gt;&lt;font face=&quot;Helvetica&quot;&gt;&lt;span style=&quot;font-size: 12.573px; text-wrap-mode: wrap;&quot;&gt;+ Organizer()&lt;br&gt;+ Organizer(eventType: Event)&lt;br&gt;+ Organizer(username:string, password:string, dateOfBirth:string, gender:Gender, balance:double, eventType:  Event)&lt;/span&gt;&lt;/font&gt;&lt;/pre&gt;" style="text;strokeColor=none;fillColor=none;align=left;verticalAlign=top;spacingLeft=4;spacingRight=4;overflow=hidden;rotatable=0;points=[[0,0.5],[1,0.5]];portConstraint=eastwest;whiteSpace=wrap;html=1;" vertex="1" parent="mU7X4Q-QLZoV4EPe-LPM-5">
          <mxGeometry y="90" width="350" height="110" as="geometry" />
        </mxCell>
        <mxCell id="mU7X4Q-QLZoV4EPe-LPM-9" value="&lt;pre style=&quot;overflow: auto; padding: 9.144px 13.716px; word-break: break-all; margin-top: 0px !important; margin-bottom: 0px !important;&quot;&gt;&lt;span style=&quot;font-size: 12.573px; text-wrap-mode: wrap;&quot;&gt;&lt;font face=&quot;Helvetica&quot;&gt;+ getEventType(): Event&lt;br&gt;+ setEventType(eventType: Event): void&lt;br&gt;+ showAvailableRooms(): void&lt;br&gt;+ showOrganizedEvents(): void&lt;br&gt;+ showOrganizedAttendees(): void&lt;br&gt;+ receivePayment(amount: double): void&lt;br&gt;+ createEvent(category: Category): void&lt;br&gt;+ readAllEvents(): void&lt;br&gt;+ updateEvent(index: int, newCategory: Category): void&lt;br&gt;+ deleteEvent(index: int): void&lt;/font&gt;&lt;/span&gt;&lt;/pre&gt;" style="text;strokeColor=none;fillColor=none;align=left;verticalAlign=top;spacingLeft=4;spacingRight=4;overflow=hidden;rotatable=0;points=[[0,0.5],[1,0.5]];portConstraint=eastwest;whiteSpace=wrap;html=1;" vertex="1" parent="mU7X4Q-QLZoV4EPe-LPM-5">
          <mxGeometry y="200" width="350" height="222" as="geometry" />
        </mxCell>
        <mxCell id="mU7X4Q-QLZoV4EPe-LPM-10" style="edgeStyle=orthogonalEdgeStyle;rounded=0;orthogonalLoop=1;jettySize=auto;html=1;exitX=0.5;exitY=0;exitDx=0;exitDy=0;entryX=0.988;entryY=0.269;entryDx=0;entryDy=0;entryPerimeter=0;endArrow=open;endFill=0;" edge="1" parent="1" source="mU7X4Q-QLZoV4EPe-LPM-11" target="mU7X4Q-QLZoV4EPe-LPM-4">
          <mxGeometry relative="1" as="geometry">
            <mxPoint x="1720" y="410" as="targetPoint" />
          </mxGeometry>
        </mxCell>
        <mxCell id="mU7X4Q-QLZoV4EPe-LPM-11" value="&lt;span style=&quot;font-weight: normal;&quot;&gt;&lt;i&gt;Admin&lt;/i&gt;&lt;/span&gt;" style="swimlane;fontStyle=1;align=center;verticalAlign=top;childLayout=stackLayout;horizontal=1;startSize=26;horizontalStack=0;resizeParent=1;resizeParentMax=0;resizeLast=0;collapsible=1;marginBottom=0;whiteSpace=wrap;html=1;" vertex="1" parent="1">
          <mxGeometry x="1565" y="630" width="340" height="490" as="geometry" />
        </mxCell>
        <mxCell id="mU7X4Q-QLZoV4EPe-LPM-12" value="&lt;pre style=&quot;overflow: auto; padding: 9.144px 13.716px; word-break: break-all; margin-top: 0px !important; margin-bottom: 0px !important; color: rgb(73, 73, 73);&quot;&gt;&lt;pre style=&quot;overflow: auto; padding: 9.144px 13.716px; text-wrap-mode: wrap; word-break: break-all; font-size: 12.573px; margin-top: 0px !important; margin-bottom: 0px !important;&quot;&gt;&lt;font face=&quot;Helvetica&quot;&gt;- role: String                                                           -WorkingHours: int                                                   &lt;/font&gt;&lt;/pre&gt;&lt;/pre&gt;" style="text;strokeColor=none;fillColor=none;align=left;verticalAlign=top;spacingLeft=4;spacingRight=4;overflow=hidden;rotatable=0;points=[[0,0.5],[1,0.5]];portConstraint=eastwest;whiteSpace=wrap;html=1;" vertex="1" parent="mU7X4Q-QLZoV4EPe-LPM-11">
          <mxGeometry y="26" width="340" height="64" as="geometry" />
        </mxCell>
        <mxCell id="mU7X4Q-QLZoV4EPe-LPM-13" value="" style="line;strokeWidth=1;fillColor=none;align=left;verticalAlign=middle;spacingTop=-1;spacingLeft=3;spacingRight=3;rotatable=0;labelPosition=right;points=[];portConstraint=eastwest;strokeColor=inherit;" vertex="1" parent="mU7X4Q-QLZoV4EPe-LPM-11">
          <mxGeometry y="90" width="340" height="8" as="geometry" />
        </mxCell>
        <mxCell id="mU7X4Q-QLZoV4EPe-LPM-14" value="&lt;pre style=&quot;overflow: auto; padding: 9.144px 13.716px; text-wrap-mode: wrap; word-break: break-all; font-size: 12.573px; margin-top: 0px !important; margin-bottom: 0px !important;&quot;&gt;&lt;pre style=&quot;overflow: auto; padding: 9.144px 13.716px; text-wrap-mode: wrap; word-break: break-all; margin-top: 0px !important; margin-bottom: 0px !important;&quot;&gt;&lt;font style=&quot;color: rgb(73, 73, 73);&quot; face=&quot;Helvetica&quot;&gt;+ Admin()                                                                             + Admin(&lt;/font&gt;&lt;font color=&quot;#494949&quot;&gt;username:String,password:String, dateOfBirth:String, Gender:gender,&lt;/font&gt;&lt;span style=&quot;font-family: &amp;quot;JetBrains Mono&amp;quot;, monospace; font-size: 9.8pt; white-space-collapse: collapse; background-color: rgb(255, 255, 255); color: rgb(188, 190, 196);&quot;&gt;&lt;font style=&quot;color: rgb(0, 0, 0);&quot;&gt;role:String,workinghours:int,balance:&amp;nbsp; &amp;nbsp; &amp;nbsp; double&lt;/font&gt;&lt;/span&gt;&lt;font color=&quot;#494949&quot;&gt;)                                                           + getRole(): String                                                    + setRole(role: String): void                                         + getWorkingHours(): int                                              + setWorkingHours(workingHours: int):  void                                    + showRooms(): void                                                   + showAttendee(): void                                                + showOrganizers(): void                                               + showEvents(): void                                                  + addEvent(category: Category): void                                  + viewAllEvents(): void                                               + updateEventCategory(index: int, newCategory: Category): void        &lt;/font&gt;&lt;/pre&gt;&lt;pre style=&quot;overflow: auto; padding: 9.144px 13.716px; text-wrap-mode: wrap; word-break: break-all; color: rgb(73, 73, 73); margin-top: 0px !important; margin-bottom: 0px !important;&quot;&gt;&lt;font face=&quot;Helvetica&quot;&gt;+ deleteEvent(index: int): void  &lt;/font&gt;&lt;/pre&gt;&lt;/pre&gt;" style="text;strokeColor=none;fillColor=none;align=left;verticalAlign=top;spacingLeft=4;spacingRight=4;overflow=hidden;rotatable=0;points=[[0,0.5],[1,0.5]];portConstraint=eastwest;whiteSpace=wrap;html=1;" vertex="1" parent="mU7X4Q-QLZoV4EPe-LPM-11">
          <mxGeometry y="98" width="340" height="392" as="geometry" />
        </mxCell>
        <mxCell id="mU7X4Q-QLZoV4EPe-LPM-15" style="edgeStyle=orthogonalEdgeStyle;rounded=0;orthogonalLoop=1;jettySize=auto;html=1;endArrow=open;endFill=0;" edge="1" parent="1" source="mU7X4Q-QLZoV4EPe-LPM-16">
          <mxGeometry relative="1" as="geometry">
            <mxPoint x="1295" y="580" as="targetPoint" />
          </mxGeometry>
        </mxCell>
        <mxCell id="mU7X4Q-QLZoV4EPe-LPM-16" value="&lt;span style=&quot;font-weight: normal;&quot;&gt;Attendee&lt;/span&gt;" style="swimlane;fontStyle=1;align=center;verticalAlign=top;childLayout=stackLayout;horizontal=1;startSize=30;horizontalStack=0;resizeParent=1;resizeParentMax=0;resizeLast=0;collapsible=1;marginBottom=0;whiteSpace=wrap;html=1;" vertex="1" parent="1">
          <mxGeometry x="1115" y="620" width="380" height="410" as="geometry" />
        </mxCell>
        <mxCell id="mU7X4Q-QLZoV4EPe-LPM-17" value="&lt;pre style=&quot;overflow: auto; padding: 9.144px 13.716px; word-break: break-all; margin-top: 0px !important; margin-bottom: 0px !important; color: rgb(73, 73, 73);&quot;&gt;&lt;pre style=&quot;overflow: auto; padding: 9.144px 13.716px; text-wrap-mode: wrap; word-break: break-all; margin-top: 0px !important; margin-bottom: 0px !important;&quot;&gt;&lt;pre style=&quot;overflow: auto; padding: 9.144px 13.716px; text-wrap-mode: wrap; word-break: break-all; font-size: 12.573px; margin-top: 0px !important; margin-bottom: 0px !important;&quot;&gt;&lt;font face=&quot;Helvetica&quot;&gt;- balance: float                                                          - Address: String                                                       - Interests: String                                                             - purchasedTickets: List&amp;lt;Ticket&amp;gt;                                                                   &lt;/font&gt;&lt;/pre&gt;&lt;/pre&gt;&lt;/pre&gt;" style="text;strokeColor=none;fillColor=none;align=left;verticalAlign=top;spacingLeft=4;spacingRight=4;overflow=hidden;rotatable=0;points=[[0,0.5],[1,0.5]];portConstraint=eastwest;whiteSpace=wrap;html=1;" vertex="1" parent="mU7X4Q-QLZoV4EPe-LPM-16">
          <mxGeometry y="30" width="380" height="100" as="geometry" />
        </mxCell>
        <mxCell id="mU7X4Q-QLZoV4EPe-LPM-18" value="" style="line;strokeWidth=1;fillColor=none;align=left;verticalAlign=middle;spacingTop=-1;spacingLeft=3;spacingRight=3;rotatable=0;labelPosition=right;points=[];portConstraint=eastwest;strokeColor=inherit;" vertex="1" parent="mU7X4Q-QLZoV4EPe-LPM-16">
          <mxGeometry y="130" width="380" height="8" as="geometry" />
        </mxCell>
        <mxCell id="mU7X4Q-QLZoV4EPe-LPM-19" value="&lt;pre style=&quot;overflow: auto; padding: 9.144px 13.716px; text-wrap-mode: wrap; word-break: break-all; margin-top: 0px !important; margin-bottom: 0px !important; font-size: 12.573px;&quot;&gt;&lt;pre style=&quot;overflow: auto; padding: 9.144px 13.716px; text-wrap-mode: wrap; word-break: break-all; margin-top: 0px !important; margin-bottom: 0px !important;&quot;&gt;&lt;pre style=&quot;overflow: auto; padding: 9.144px 13.716px; text-wrap-mode: wrap; word-break: break-all; margin-top: 0px !important; margin-bottom: 0px !important;&quot;&gt;&lt;font face=&quot;Helvetica&quot;&gt;&lt;font style=&quot;&quot;&gt;&lt;font style=&quot;color: rgb(73, 73, 73);&quot;&gt;+ &lt;/font&gt;&lt;font style=&quot;&quot;&gt;Attendee(username:string, password:string, dateOfBirth:string, gender :Gender, &lt;/font&gt;&lt;font style=&quot;&quot;&gt;&lt;font&gt;&lt;span style=&quot;font-size: 9.8pt; white-space-collapse: collapse;&quot;&gt;&lt;font style=&quot;color: rgb(0, 0, 0);&quot;&gt;balanc&lt;/font&gt;&lt;/span&gt;&lt;span style=&quot;font-size: 9.8pt; white-space-collapse: collapse; color: rgb(188, 190, 196);&quot;&gt;&lt;font style=&quot;color: rgb(0, 0, 0);&quot;&gt;e:float, address:string, interests:string)&lt;/font&gt;&lt;/span&gt;&lt;/font&gt;&lt;/font&gt;&lt;font style=&quot;white-space-collapse: collapse; background-color: transparent; color: rgb(73, 73, 73);&quot;&gt;&amp;nbsp; &amp;nbsp;&lt;/font&gt;&lt;font style=&quot;white-space-collapse: collapse; background-color: transparent; color: rgb(73, 73, 73);&quot;&gt;&amp;nbsp; &amp;nbsp; &amp;nbsp; &amp;nbsp; &amp;nbsp; &amp;nbsp; &amp;nbsp; &amp;nbsp; &amp;nbsp; &amp;nbsp; &amp;nbsp; &amp;nbsp; &amp;nbsp; &amp;nbsp; &amp;nbsp; &amp;nbsp; &amp;nbsp; &amp;nbsp; + getBalance(): float&amp;nbsp; &amp;nbsp; &amp;nbsp; &amp;nbsp; &amp;nbsp; &amp;nbsp; &amp;nbsp; &amp;nbsp; &amp;nbsp; &amp;nbsp; &amp;nbsp; &amp;nbsp; &amp;nbsp; &amp;nbsp; &amp;nbsp; &amp;nbsp; &amp;nbsp; &amp;nbsp; &amp;nbsp; &amp;nbsp; &amp;nbsp; &amp;nbsp; &amp;nbsp; &amp;nbsp; + setBalance(balance: float): void&amp;nbsp; &amp;nbsp; &amp;nbsp; &amp;nbsp; &amp;nbsp; &amp;nbsp; &amp;nbsp; &amp;nbsp; &amp;nbsp; &amp;nbsp; &amp;nbsp; &amp;nbsp; &amp;nbsp; &amp;nbsp;+ getAddress(): String&amp;nbsp; &amp;nbsp; &amp;nbsp; &amp;nbsp; &amp;nbsp; &amp;nbsp; &amp;nbsp; &amp;nbsp; &amp;nbsp; &amp;nbsp; &amp;nbsp; &amp;nbsp; &amp;nbsp; &amp;nbsp; &amp;nbsp; &amp;nbsp; &amp;nbsp; &amp;nbsp; &amp;nbsp; &amp;nbsp; &amp;nbsp; &amp;nbsp; &amp;nbsp;+ setAddress(address: String): void&amp;nbsp; &amp;nbsp; &amp;nbsp; &amp;nbsp; &amp;nbsp; &amp;nbsp; &amp;nbsp; &amp;nbsp; &amp;nbsp; &amp;nbsp; &amp;nbsp; &amp;nbsp;+ getInterests(): String&amp;nbsp; &amp;nbsp; &amp;nbsp; &amp;nbsp; &amp;nbsp; &amp;nbsp; &amp;nbsp; &amp;nbsp; &amp;nbsp; &amp;nbsp; &amp;nbsp; &amp;nbsp; &amp;nbsp; &amp;nbsp; &amp;nbsp; &amp;nbsp; &amp;nbsp; &amp;nbsp; &amp;nbsp; &amp;nbsp; &amp;nbsp; &amp;nbsp; &amp;nbsp;+ setInterests(interests: String): void&amp;nbsp; &amp;nbsp; &amp;nbsp; &amp;nbsp; &amp;nbsp; &amp;nbsp; &amp;nbsp; &amp;nbsp; &amp;nbsp; &amp;nbsp; &amp;nbsp; + buyTicket(ticket: Ticket, organizer: Organizer):&amp;nbsp; &amp;nbsp; &amp;nbsp;boolean&amp;nbsp; &amp;nbsp; &amp;nbsp; &amp;nbsp; &amp;nbsp; &amp;nbsp; &amp;nbsp; &amp;nbsp; &amp;nbsp; &amp;nbsp; &amp;nbsp; &amp;nbsp; &amp;nbsp; &amp;nbsp; &amp;nbsp; &amp;nbsp; &amp;nbsp; &amp;nbsp; &amp;nbsp; &amp;nbsp; &amp;nbsp; &amp;nbsp; &amp;nbsp; &amp;nbsp; &amp;nbsp; &amp;nbsp; &amp;nbsp; &amp;nbsp; &amp;nbsp; &amp;nbsp; &amp;nbsp; &amp;nbsp; &amp;nbsp; &amp;nbsp; &amp;nbsp; &amp;nbsp; + printPurchasedTickets(): void&amp;nbsp; &amp;nbsp; &amp;nbsp; &amp;nbsp; &amp;nbsp; &amp;nbsp; &amp;nbsp; &amp;nbsp; &amp;nbsp; &amp;nbsp; &amp;nbsp; &amp;nbsp; &amp;nbsp; &amp;nbsp; &amp;nbsp; &amp;nbsp; + getPurchasedTickets(): List&amp;lt;Ticket&amp;gt;&lt;/font&gt;&lt;/font&gt;&lt;font color=&quot;#494949&quot;&gt;&lt;span style=&quot;white-space-collapse: collapse; background-color: transparent;&quot;&gt;&lt;/span&gt;&lt;/font&gt;&lt;/font&gt;&lt;/pre&gt;&lt;pre style=&quot;color: rgb(73, 73, 73); overflow: auto; padding: 9.144px 13.716px; text-wrap-mode: wrap; word-break: break-all; margin-top: 0px !important; margin-bottom: 0px !important;&quot;&gt;&lt;font face=&quot;Helvetica&quot;&gt; &lt;/font&gt;&lt;/pre&gt;&lt;/pre&gt;&lt;/pre&gt;" style="text;strokeColor=none;fillColor=none;align=left;verticalAlign=top;spacingLeft=4;spacingRight=4;overflow=hidden;rotatable=0;points=[[0,0.5],[1,0.5]];portConstraint=eastwest;whiteSpace=wrap;html=1;" vertex="1" parent="mU7X4Q-QLZoV4EPe-LPM-16">
          <mxGeometry y="138" width="380" height="272" as="geometry" />
        </mxCell>
        <mxCell id="mU7X4Q-QLZoV4EPe-LPM-20" value="&lt;p style=&quot;margin:0px;margin-top:4px;text-align:center;&quot;&gt;&lt;b&gt;Category&lt;/b&gt;&lt;/p&gt;&lt;hr size=&quot;1&quot; style=&quot;border-style:solid;&quot;&gt;&lt;div style=&quot;height:2px;&quot;&gt;&lt;/div&gt;&lt;div style=&quot;height:2px;&quot;&gt;&lt;br&gt;&lt;/div&gt;&lt;div style=&quot;height:2px;&quot;&gt;&lt;br&gt;&lt;/div&gt;&lt;div style=&quot;height:2px;&quot;&gt;&lt;br&gt;&lt;/div&gt;&lt;div style=&quot;height:2px;&quot;&gt;&lt;br&gt;&lt;/div&gt;&lt;div style=&quot;height:2px;&quot;&gt;&lt;br&gt;&lt;/div&gt;" style="verticalAlign=top;align=left;overflow=fill;html=1;whiteSpace=wrap;" vertex="1" parent="1">
          <mxGeometry x="45" y="170" width="140" height="130" as="geometry" />
        </mxCell>
        <mxCell id="mU7X4Q-QLZoV4EPe-LPM-21" value="&lt;div style=&quot;text-align: left;&quot;&gt;Social&lt;/div&gt;&lt;div style=&quot;text-align: left;&quot;&gt;&lt;span style=&quot;background-color: transparent; color: light-dark(rgb(0, 0, 0), rgb(255, 255, 255));&quot;&gt;Business&lt;/span&gt;&lt;/div&gt;&lt;div style=&quot;text-align: left;&quot;&gt;&lt;span style=&quot;background-color: transparent; color: light-dark(rgb(0, 0, 0), rgb(255, 255, 255));&quot;&gt;Educational&lt;/span&gt;&lt;/div&gt;&lt;div style=&quot;text-align: left;&quot;&gt;&lt;span style=&quot;background-color: transparent; color: light-dark(rgb(0, 0, 0), rgb(255, 255, 255));&quot;&gt;Entertainment&lt;/span&gt;&lt;/div&gt;&lt;div style=&quot;text-align: left;&quot;&gt;&lt;span style=&quot;background-color: transparent; color: light-dark(rgb(0, 0, 0), rgb(255, 255, 255));&quot;&gt;Personal&lt;/span&gt;&lt;/div&gt;&lt;div style=&quot;text-align: left;&quot;&gt;Sport&lt;/div&gt;&lt;div&gt;&lt;br&gt;&lt;/div&gt;" style="text;html=1;align=center;verticalAlign=middle;resizable=0;points=[];autosize=1;strokeColor=none;fillColor=none;" vertex="1" parent="1">
          <mxGeometry x="45" y="200" width="100" height="110" as="geometry" />
        </mxCell>
        <mxCell id="mU7X4Q-QLZoV4EPe-LPM-22" value="&lt;p style=&quot;margin:0px;margin-top:4px;text-align:center;&quot;&gt;&lt;b&gt;Gender&lt;/b&gt;&lt;/p&gt;&lt;hr size=&quot;1&quot; style=&quot;border-style:solid;&quot;&gt;&lt;div style=&quot;height:2px;&quot;&gt;&lt;/div&gt;&lt;div style=&quot;height:2px;&quot;&gt;&lt;br&gt;&lt;/div&gt;&lt;div style=&quot;height:2px;&quot;&gt;&lt;br&gt;&lt;/div&gt;&lt;div style=&quot;height:2px;&quot;&gt;&lt;br&gt;&lt;/div&gt;&lt;div style=&quot;height:2px;&quot;&gt;&lt;br&gt;&lt;/div&gt;&lt;div style=&quot;height:2px;&quot;&gt;&lt;br&gt;&lt;/div&gt;" style="verticalAlign=top;align=left;overflow=fill;html=1;whiteSpace=wrap;" vertex="1" parent="1">
          <mxGeometry x="215" y="170" width="140" height="90" as="geometry" />
        </mxCell>
        <mxCell id="mU7X4Q-QLZoV4EPe-LPM-23" value="Male&lt;div&gt;Female&lt;/div&gt;&lt;div style=&quot;&quot;&gt;Engineer&lt;/div&gt;" style="text;html=1;align=left;verticalAlign=middle;resizable=0;points=[];autosize=1;strokeColor=none;fillColor=none;" vertex="1" parent="1">
          <mxGeometry x="225" y="195" width="70" height="60" as="geometry" />
        </mxCell>
        <mxCell id="mU7X4Q-QLZoV4EPe-LPM-24" value="&lt;p style=&quot;margin:0px;margin-top:4px;text-align:center;&quot;&gt;&lt;b&gt;Event&lt;/b&gt;&lt;/p&gt;&lt;hr size=&quot;1&quot; style=&quot;border-style:solid;&quot;&gt;&lt;p style=&quot;margin:0px;margin-left:4px;&quot;&gt;- category : Category&lt;/p&gt;&lt;hr size=&quot;1&quot; style=&quot;border-style:solid;&quot;&gt;&lt;p style=&quot;margin:0px;margin-left:4px;&quot;&gt;+ getcategory(): category&lt;/p&gt;&lt;p style=&quot;margin:0px;margin-left:4px;&quot;&gt;+ setcategory(category): void&lt;/p&gt;&lt;p style=&quot;margin:0px;margin-left:4px;&quot;&gt;+ Event(category)&lt;/p&gt;&lt;p style=&quot;margin:0px;margin-left:4px;&quot;&gt;&lt;br&gt;&lt;/p&gt;" style="verticalAlign=top;align=left;overflow=fill;html=1;whiteSpace=wrap;" vertex="1" parent="1">
          <mxGeometry x="25" y="390" width="160" height="110" as="geometry" />
        </mxCell>
        <mxCell id="mU7X4Q-QLZoV4EPe-LPM-25" value="Room" style="swimlane;fontStyle=1;align=center;verticalAlign=top;childLayout=stackLayout;horizontal=1;startSize=26;horizontalStack=0;resizeParent=1;resizeParentMax=0;resizeLast=0;collapsible=1;marginBottom=0;whiteSpace=wrap;html=1;" vertex="1" parent="1">
          <mxGeometry x="225" y="390" width="240" height="250" as="geometry" />
        </mxCell>
        <mxCell id="mU7X4Q-QLZoV4EPe-LPM-26" value="- capacity: int&lt;div&gt;-&amp;nbsp;&lt;span style=&quot;background-color: transparent; color: light-dark(rgb(0, 0, 0), rgb(255, 255, 255));&quot;&gt;Id: int&lt;/span&gt;&lt;/div&gt;&lt;div&gt;- AvailableOrNot: boolean&lt;/div&gt;&lt;div&gt;&lt;div&gt;&lt;br&gt;&lt;/div&gt;&lt;/div&gt;" style="text;strokeColor=none;fillColor=none;align=left;verticalAlign=top;spacingLeft=4;spacingRight=4;overflow=hidden;rotatable=0;points=[[0,0.5],[1,0.5]];portConstraint=eastwest;whiteSpace=wrap;html=1;" vertex="1" parent="mU7X4Q-QLZoV4EPe-LPM-25">
          <mxGeometry y="26" width="240" height="64" as="geometry" />
        </mxCell>
        <mxCell id="mU7X4Q-QLZoV4EPe-LPM-27" value="" style="line;strokeWidth=1;fillColor=none;align=left;verticalAlign=middle;spacingTop=-1;spacingLeft=3;spacingRight=3;rotatable=0;labelPosition=right;points=[];portConstraint=eastwest;strokeColor=inherit;" vertex="1" parent="mU7X4Q-QLZoV4EPe-LPM-25">
          <mxGeometry y="90" width="240" height="8" as="geometry" />
        </mxCell>
        <mxCell id="mU7X4Q-QLZoV4EPe-LPM-28" value="&lt;div&gt;&lt;font face=&quot;Helvetica&quot;&gt;+ Room()&amp;nbsp; &amp;nbsp; &amp;nbsp; &amp;nbsp; &amp;nbsp; &amp;nbsp; &amp;nbsp; &amp;nbsp; &amp;nbsp; &amp;nbsp; &amp;nbsp; &amp;nbsp; &amp;nbsp;&amp;nbsp;&lt;/font&gt;&lt;/div&gt;&lt;div&gt;&lt;span style=&quot;background-color: transparent; color: light-dark(rgb(0, 0, 0), rgb(255, 255, 255));&quot;&gt;+ Room(id: int, availableOrNot: boolean, capacity: int)&amp;nbsp; &amp;nbsp; &amp;nbsp; &amp;nbsp; &amp;nbsp; &amp;nbsp; &amp;nbsp; &amp;nbsp; &amp;nbsp; &amp;nbsp; &amp;nbsp; &amp;nbsp; &amp;nbsp; &amp;nbsp; &amp;nbsp; &amp;nbsp; &amp;nbsp; &amp;nbsp; &amp;nbsp; &amp;nbsp; &amp;nbsp; &amp;nbsp; &amp;nbsp; &amp;nbsp;&lt;/span&gt;&lt;font face=&quot;Helvetica&quot;&gt;+ getCapacity(): int&amp;nbsp; &amp;nbsp; &amp;nbsp; &amp;nbsp; &amp;nbsp; &amp;nbsp; &amp;nbsp;&amp;nbsp;&lt;/font&gt;&lt;/div&gt;&lt;div&gt;&lt;font face=&quot;Helvetica&quot;&gt;+ setCapacity(capacity: int): void&lt;/font&gt;&lt;/div&gt;&lt;div&gt;&lt;font face=&quot;Helvetica&quot;&gt;+ getId(): int&amp;nbsp; &amp;nbsp; &amp;nbsp; &amp;nbsp; &amp;nbsp; &amp;nbsp; &amp;nbsp; &amp;nbsp; &amp;nbsp; &amp;nbsp;&amp;nbsp;&lt;/font&gt;&lt;/div&gt;&lt;div&gt;&lt;font face=&quot;Helvetica&quot;&gt;+ setId(id: int): void&amp;nbsp; &amp;nbsp; &amp;nbsp; &amp;nbsp; &amp;nbsp; &amp;nbsp;&amp;nbsp;&lt;/font&gt;&lt;/div&gt;&lt;div&gt;&lt;font face=&quot;Helvetica&quot;&gt;+ getAvailableOrNot(): boolean&amp;nbsp; &amp;nbsp;&amp;nbsp;&lt;/font&gt;&lt;/div&gt;&lt;div&gt;&lt;font face=&quot;Helvetica&quot;&gt;+ setAvailableOrNot(boolean): void&lt;/font&gt;&lt;/div&gt;&lt;div&gt;&lt;br&gt;&lt;/div&gt;" style="text;strokeColor=none;fillColor=none;align=left;verticalAlign=top;spacingLeft=4;spacingRight=4;overflow=hidden;rotatable=0;points=[[0,0.5],[1,0.5]];portConstraint=eastwest;whiteSpace=wrap;html=1;" vertex="1" parent="mU7X4Q-QLZoV4EPe-LPM-25">
          <mxGeometry y="98" width="240" height="152" as="geometry" />
        </mxCell>
        <mxCell id="mU7X4Q-QLZoV4EPe-LPM-29" value="Ticket" style="swimlane;fontStyle=1;align=center;verticalAlign=top;childLayout=stackLayout;horizontal=1;startSize=26;horizontalStack=0;resizeParent=1;resizeParentMax=0;resizeLast=0;collapsible=1;marginBottom=0;whiteSpace=wrap;html=1;" vertex="1" parent="1">
          <mxGeometry x="25" y="550" width="160" height="140" as="geometry" />
        </mxCell>
        <mxCell id="mU7X4Q-QLZoV4EPe-LPM-30" value="- price: double&lt;div&gt;- event: Event&lt;/div&gt;" style="text;strokeColor=none;fillColor=none;align=left;verticalAlign=top;spacingLeft=4;spacingRight=4;overflow=hidden;rotatable=0;points=[[0,0.5],[1,0.5]];portConstraint=eastwest;whiteSpace=wrap;html=1;" vertex="1" parent="mU7X4Q-QLZoV4EPe-LPM-29">
          <mxGeometry y="26" width="160" height="44" as="geometry" />
        </mxCell>
        <mxCell id="mU7X4Q-QLZoV4EPe-LPM-31" value="" style="line;strokeWidth=1;fillColor=none;align=left;verticalAlign=middle;spacingTop=-1;spacingLeft=3;spacingRight=3;rotatable=0;labelPosition=right;points=[];portConstraint=eastwest;strokeColor=inherit;" vertex="1" parent="mU7X4Q-QLZoV4EPe-LPM-29">
          <mxGeometry y="70" width="160" height="8" as="geometry" />
        </mxCell>
        <mxCell id="mU7X4Q-QLZoV4EPe-LPM-32" value="+ Ticket(price,Event)&lt;div&gt;+ getPrice(): double&lt;/div&gt;&lt;div&gt;+ getEvent():Event&lt;br&gt;&lt;div&gt;&lt;br&gt;&lt;div&gt;&lt;br&gt;&lt;/div&gt;&lt;/div&gt;&lt;/div&gt;" style="text;strokeColor=none;fillColor=none;align=left;verticalAlign=top;spacingLeft=4;spacingRight=4;overflow=hidden;rotatable=0;points=[[0,0.5],[1,0.5]];portConstraint=eastwest;whiteSpace=wrap;html=1;" vertex="1" parent="mU7X4Q-QLZoV4EPe-LPM-29">
          <mxGeometry y="78" width="160" height="62" as="geometry" />
        </mxCell>
        <mxCell id="mU7X4Q-QLZoV4EPe-LPM-33" value="Wallet" style="swimlane;fontStyle=1;align=center;verticalAlign=top;childLayout=stackLayout;horizontal=1;startSize=26;horizontalStack=0;resizeParent=1;resizeParentMax=0;resizeLast=0;collapsible=1;marginBottom=0;whiteSpace=wrap;html=1;" vertex="1" parent="1">
          <mxGeometry x="25" y="710" width="220" height="130" as="geometry" />
        </mxCell>
        <mxCell id="mU7X4Q-QLZoV4EPe-LPM-34" value="-&amp;nbsp;&lt;span style=&quot;background-color: transparent; color: light-dark(rgb(0, 0, 0), rgb(255, 255, 255));&quot;&gt;balance: double&lt;/span&gt;" style="text;strokeColor=none;fillColor=none;align=left;verticalAlign=top;spacingLeft=4;spacingRight=4;overflow=hidden;rotatable=0;points=[[0,0.5],[1,0.5]];portConstraint=eastwest;whiteSpace=wrap;html=1;" vertex="1" parent="mU7X4Q-QLZoV4EPe-LPM-33">
          <mxGeometry y="26" width="220" height="26" as="geometry" />
        </mxCell>
        <mxCell id="mU7X4Q-QLZoV4EPe-LPM-35" value="" style="line;strokeWidth=1;fillColor=none;align=left;verticalAlign=middle;spacingTop=-1;spacingLeft=3;spacingRight=3;rotatable=0;labelPosition=right;points=[];portConstraint=eastwest;strokeColor=inherit;" vertex="1" parent="mU7X4Q-QLZoV4EPe-LPM-33">
          <mxGeometry y="52" width="220" height="8" as="geometry" />
        </mxCell>
        <mxCell id="mU7X4Q-QLZoV4EPe-LPM-36" value="+ Wallet(balance)&lt;div&gt;+ getbalance(): double&lt;br&gt;+ deduct(amount:double): boolean&lt;br&gt;+ add(amount:double): void&lt;/div&gt;" style="text;strokeColor=none;fillColor=none;align=left;verticalAlign=top;spacingLeft=4;spacingRight=4;overflow=hidden;rotatable=0;points=[[0,0.5],[1,0.5]];portConstraint=eastwest;whiteSpace=wrap;html=1;" vertex="1" parent="mU7X4Q-QLZoV4EPe-LPM-33">
          <mxGeometry y="60" width="220" height="70" as="geometry" />
        </mxCell>
        <mxCell id="mU7X4Q-QLZoV4EPe-LPM-37" value="Database" style="swimlane;fontStyle=1;align=center;verticalAlign=top;childLayout=stackLayout;horizontal=1;startSize=26;horizontalStack=0;resizeParent=1;resizeParentMax=0;resizeLast=0;collapsible=1;marginBottom=0;whiteSpace=wrap;html=1;" vertex="1" parent="1">
          <mxGeometry x="330" y="720" width="220" height="150" as="geometry" />
        </mxCell>
        <mxCell id="mU7X4Q-QLZoV4EPe-LPM-38" value="+ attendeeList: List&amp;lt;Attendee&amp;gt;&lt;div&gt;+ adminList: List&amp;lt;Admin&amp;gt;&lt;/div&gt;&lt;div&gt;+ organizerList: List&amp;lt;Organizer&amp;gt;&lt;/div&gt;&lt;div&gt;+ eventList: List&amp;lt;Event&amp;gt;&lt;/div&gt;&lt;div&gt;+ roomList: List&amp;lt;Room&amp;gt;&lt;/div&gt;" style="text;strokeColor=none;fillColor=none;align=left;verticalAlign=top;spacingLeft=4;spacingRight=4;overflow=hidden;rotatable=0;points=[[0,0.5],[1,0.5]];portConstraint=eastwest;whiteSpace=wrap;html=1;" vertex="1" parent="mU7X4Q-QLZoV4EPe-LPM-37">
          <mxGeometry y="26" width="220" height="124" as="geometry" />
        </mxCell>
        <mxCell id="mU7X4Q-QLZoV4EPe-LPM-39" value="" style="line;strokeWidth=1;fillColor=none;align=left;verticalAlign=middle;spacingTop=-1;spacingLeft=3;spacingRight=3;rotatable=0;labelPosition=right;points=[];portConstraint=eastwest;strokeColor=inherit;" vertex="1" parent="mU7X4Q-QLZoV4EPe-LPM-37">
          <mxGeometry y="150" width="220" as="geometry" />
        </mxCell>
        <mxCell id="mU7X4Q-QLZoV4EPe-LPM-40" style="edgeStyle=orthogonalEdgeStyle;rounded=0;orthogonalLoop=1;jettySize=auto;html=1;exitX=0.5;exitY=0;exitDx=0;exitDy=0;entryX=0;entryY=0.391;entryDx=0;entryDy=0;entryPerimeter=0;endArrow=open;endFill=0;" edge="1" parent="1" source="mU7X4Q-QLZoV4EPe-LPM-5" target="mU7X4Q-QLZoV4EPe-LPM-4">
          <mxGeometry relative="1" as="geometry" />
        </mxCell>
      </root>
    </mxGraphModel>
  </diagram>
</mxfile>
